<svg xmlns="http://www.w3.org/2000/svg" xmlns:xlink="http://www.w3.org/1999/xlink" width="512" zoomAndPan="magnify" viewBox="0 0 384 383.999986" height="512" preserveAspectRatio="xMidYMid meet" version="1.0"><defs><g/></defs><rect x="-38.4" width="460.8" fill="#ffffff" y="-38.399999" height="460.799983" fill-opacity="1"/><rect x="-38.4" width="460.8" fill="#000000" y="-38.399999" height="460.799983" fill-opacity="1"/><g fill="#f9f6f2" fill-opacity="1"><g transform="translate(92.480174, 317.119254)"><g><path d="M 132.496094 -45.699219 L 0 -45.699219 L 0 -2.761719 C 0 -1.535156 1.535156 0 3.375 0 L 132.496094 0 C 134.640625 0 135.867188 -1.535156 135.867188 -2.761719 L 135.867188 -42.632812 C 135.867188 -44.164062 134.640625 -45.699219 132.496094 -45.699219 Z M 46.925781 -92.625 L 46.925781 -242.601562 C 46.925781 -243.828125 45.699219 -245.359375 43.859375 -245.359375 L 3.375 -245.359375 C 1.535156 -245.359375 0 -243.828125 0 -242.601562 L 0 -92.625 Z M 46.925781 -92.625 "/></g></g></g><g fill="#f9f6f2" fill-opacity="1"><g transform="translate(139.972482, 317.119254)"><g><path d="M 112.558594 -136.175781 C 95.078125 -144.457031 77.902344 -144.457031 76.367188 -144.457031 C 60.726562 -144.457031 45.699219 -153.65625 45.699219 -171.445312 C 45.699219 -191.074219 59.5 -201.195312 76.367188 -201.195312 C 92.316406 -201.195312 105.8125 -192.914062 106.425781 -175.433594 C 106.425781 -174.511719 107.957031 -172.980469 109.800781 -172.980469 L 148.136719 -172.980469 C 150.285156 -172.980469 151.816406 -174.511719 151.511719 -175.433594 C 150.898438 -217.144531 118.386719 -245.359375 76.367188 -245.359375 C 37.109375 -245.359375 0 -217.449219 0 -171.445312 C 0 -142.921875 14.414062 -121.148438 39.871094 -109.492188 C 57.660156 -101.210938 74.222656 -101.210938 76.367188 -101.210938 C 90.171875 -100.597656 107.039062 -89.558594 107.039062 -71.460938 C 107.039062 -55.207031 92.625 -44.164062 76.367188 -44.164062 C 76.367188 -44.164062 76.367188 -44.164062 76.0625 -44.164062 L 76.0625 0 C 76.367188 0 76.367188 0 76.367188 0 C 115.625 0 152.429688 -25.457031 152.429688 -71.460938 C 152.429688 -100.292969 138.320312 -124.214844 112.558594 -136.175781 Z M 112.558594 -136.175781 "/></g></g></g></svg>